ffmpeg version 6.1.1-3ubuntu5 Copyright (c) 2000-2023 the FFmpeg developers
  built with gcc 13 (Ubuntu 13.2.0-23ubuntu3)
  configuration: --prefix=/usr --extra-version=3ubuntu5 --toolchain=hardened --libdir=/usr/lib/x86_64-linux-gnu --incdir=/usr/include/x86_64-linux-gnu --arch=amd64 --enable-gpl --disable-stripping --disable-omx --enable-gnutls --enable-libaom --enable-libass --enable-libbs2b --enable-libcaca --enable-libcdio --enable-libcodec2 --enable-libdav1d --enable-libflite --enable-libfontconfig --enable-libfreetype --enable-libfribidi --enable-libglslang --enable-libgme --enable-libgsm --enable-libharfbuzz --enable-libmp3lame --enable-libmysofa --enable-libopenjpeg --enable-libopenmpt --enable-libopus --enable-librubberband --enable-libshine --enable-libsnappy --enable-libsoxr --enable-libspeex --enable-libtheora --enable-libtwolame --enable-libvidstab --enable-libvorbis --enable-libvpx --enable-libwebp --enable-libx265 --enable-libxml2 --enable-libxvid --enable-libzimg --enable-openal --enable-opencl --enable-opengl --disable-sndio --enable-libvpl --disable-libmfx --enable-libdc1394 --enable-libdrm --enable-libiec61883 --enable-chromaprint --enable-frei0r --enable-ladspa --enable-libbluray --enable-libjack --enable-libpulse --enable-librabbitmq --enable-librist --enable-libsrt --enable-libssh --enable-libsvtav1 --enable-libx264 --enable-libzmq --enable-libzvbi --enable-lv2 --enable-sdl2 --enable-libplacebo --enable-librav1e --enable-pocketsphinx --enable-librsvg --enable-libjxl --enable-shared
  libavutil      58. 29.100 / 58. 29.100
  libavcodec     60. 31.102 / 60. 31.102
  libavformat    60. 16.100 / 60. 16.100
  libavdevice    60.  3.100 / 60.  3.100
  libavfilter     9. 12.100 /  9. 12.100
  libswscale      7.  5.100 /  7.  5.100
  libswresample   4. 12.100 /  4. 12.100
  libpostproc    57.  3.100 / 57.  3.100
[x11grab @ 0x5633dcd50540] Stream #0: not enough frames to estimate rate; consider increasing probesize
Input #0, x11grab, from ':1':
  Duration: N/A, start: 1780912094.387528, bitrate: 884736 kb/s
  Stream #0:0: Video: rawvideo (BGR[0] / 0x524742), bgr0, 1280x720, 884736 kb/s, 30 fps, 1000k tbr, 1000k tbn
[aist#1:0/pcm_s16le @ 0x5633dcd60d40] Guessed Channel Layout: stereo
Input #1, pulse, from 'psynet_rec.monitor':
  Duration: N/A, start: 1780912095.703564, bitrate: 1536 kb/s
  Stream #1:0: Audio: pcm_s16le, 48000 Hz, 2 channels, s16, 1536 kb/s
Stream mapping:
  Stream #0:0 -> #0:0 (rawvideo (native) -> h264 (libx264))
  Stream #1:0 -> #0:1 (pcm_s16le (native) -> aac (native))
Press [q] to stop, [?] for help
[libx264 @ 0x5633dcd62180] using cpu capabilities: MMX2 SSE2Fast SSSE3 SSE4.2 AVX FMA3 BMI2 AVX2 AVX512
[libx264 @ 0x5633dcd62180] profile High, level 3.1, 4:2:0, 8-bit
[libx264 @ 0x5633dcd62180] 264 - core 164 r3108 31e19f9 - H.264/MPEG-4 AVC codec - Copyleft 2003-2023 - http://www.videolan.org/x264.html - options: cabac=1 ref=3 deblock=1:0:0 analyse=0x3:0x113 me=hex subme=7 psy=1 psy_rd=1.00:0.00 mixed_ref=1 me_range=16 chroma_me=1 trellis=1 8x8dct=1 cqm=0 deadzone=21,11 fast_pskip=1 chroma_qp_offset=-2 threads=6 lookahead_threads=1 sliced_threads=0 nr=0 decimate=1 interlaced=0 bluray_compat=0 constrained_intra=0 bframes=3 b_pyramid=2 b_adapt=1 b_bias=0 direct=1 weightb=1 open_gop=0 weightp=2 keyint=250 keyint_min=25 scenecut=40 intra_refresh=0 rc_lookahead=40 rc=crf mbtree=1 crf=23.0 qcomp=0.60 qpmin=0 qpmax=69 qpstep=4 ip_ratio=1.40 aq=1:1.00
Output #0, mp4, to '/workspace/challenges/audio-memory-sequence/attempts/2026-06-08-09-28/evidence/participant.mp4':
  Metadata:
    encoder         : Lavf60.16.100
  Stream #0:0: Video: h264 (avc1 / 0x31637661), yuv420p(tv, progressive), 1280x720, q=2-31, 30 fps, 15360 tbn
    Metadata:
      encoder         : Lavc60.31.102 libx264
    Side data:
      cpb: bitrate max/min/avg: 0/0/0 buffer size: 0 vbv_delay: N/A
  Stream #0:1: Audio: aac (LC) (mp4a / 0x6134706D), 48000 Hz, stereo, fltp, 128 kb/s
    Metadata:
      encoder         : Lavc60.31.102 aac
frame=    0 fps=0.0 q=0.0 size=       0kB time=N/A bitrate=N/A speed=N/A    [in#0/x11grab @ 0x5633dcd50440] Thread message queue blocking; consider raising the thread_queue_size option (current value: 8)
frame=    0 fps=0.0 q=0.0 size=       0kB time=00:00:00.92 bitrate=   0.4kbits/s dup=59 drop=0 speed= 1.7x    frame=    0 fps=0.0 q=0.0 size=       0kB time=00:00:01.72 bitrate=   0.2kbits/s dup=59 drop=0 speed=1.65x    frame=   15 fps=9.7 q=29.0 size=       0kB time=00:00:02.19 bitrate=   0.2kbits/s dup=95 drop=5 speed=1.42x    frame=   15 fps=7.3 q=29.0 size=       0kB time=00:00:02.70 bitrate=   0.1kbits/s dup=95 drop=5 speed=1.32x    frame=   15 fps=5.9 q=29.0 size=       0kB time=00:00:03.24 bitrate=   0.1kbits/s dup=95 drop=5 speed=1.27x    frame=   58 fps= 19 q=29.0 size=       0kB time=00:00:03.75 bitrate=   0.1kbits/s dup=130 drop=10 speed=1.23x    frame=   58 fps= 16 q=29.0 size=       0kB time=00:00:04.17 bitrate=   0.1kbits/s dup=130 drop=10 speed=1.18x    frame=   58 fps= 14 q=29.0 size=       0kB time=00:00:04.69 bitrate=   0.1kbits/s dup=130 drop=10 speed=1.16x    frame=   99 fps= 22 q=29.0 size=       0kB time=00:00:05.20 bitrate=   0.1kbits/s dup=166 drop=14 speed=1.14x    frame=   99 fps= 20 q=29.0 size=       0kB time=00:00:05.67 bitrate=   0.1kbits/s dup=166 drop=14 speed=1.12x    frame=  136 fps= 24 q=29.0 size=       0kB time=00:00:06.18 bitrate=   0.1kbits/s dup=169 drop=14 speed=1.11x    frame=  141 fps= 23 q=29.0 size=       0kB time=00:00:06.71 bitrate=   0.1kbits/s dup=202 drop=18 speed=1.11x    frame=  141 fps= 21 q=29.0 size=       0kB time=00:00:07.18 bitrate=   0.1kbits/s dup=202 drop=18 speed=1.09x    frame=  183 fps= 26 q=29.0 size=       0kB time=00:00:07.65 bitrate=   0.1kbits/s dup=237 drop=22 speed=1.08x    frame=  183 fps= 24 q=29.0 size=       0kB time=00:00:08.21 bitrate=   0.0kbits/s dup=237 drop=22 speed=1.08x    frame=  183 fps= 23 q=29.0 size=       0kB time=00:00:08.72 bitrate=   0.0kbits/s dup=237 drop=22 speed=1.08x    frame=  225 fps= 26 q=29.0 size=       0kB time=00:00:09.23 bitrate=   0.0kbits/s dup=273 drop=26 speed=1.07x    frame=  225 fps= 25 q=29.0 size=       0kB time=00:00:09.74 bitrate=   0.0kbits/s dup=273 drop=26 speed=1.07x    frame=  225 fps= 23 q=29.0 size=       0kB time=00:00:10.25 bitrate=   0.0kbits/s dup=273 drop=26 speed=1.07x    frame=  268 fps= 26 q=29.0 size=       0kB time=00:00:10.72 bitrate=   0.0kbits/s dup=309 drop=30 speed=1.06x    frame=  268 fps= 25 q=29.0 size=       0kB time=00:00:11.24 bitrate=   0.0kbits/s dup=309 drop=30 speed=1.06x    frame=  303 fps= 27 q=29.0 size=       0kB time=00:00:11.75 bitrate=   0.0kbits/s dup=312 drop=30 speed=1.05x    frame=  310 fps= 27 q=29.0 size=       0kB time=00:00:12.26 bitrate=   0.0kbits/s dup=344 drop=33 speed=1.05x    frame=  310 fps= 25 q=29.0 size=       0kB time=00:00:12.78 bitrate=   0.0kbits/s dup=344 drop=33 speed=1.05x    frame=  351 fps= 28 q=29.0 size=       0kB time=00:00:13.25 bitrate=   0.0kbits/s dup=348 drop=36 speed=1.05x    frame=  352 fps= 27 q=29.0 size=       0kB time=00:00:13.80 bitrate=   0.0kbits/s dup=379 drop=36 speed=1.05x    frame=  352 fps= 26 q=29.0 size=       0kB time=00:00:14.31 bitrate=   0.0kbits/s dup=379 drop=36 speed=1.05x    frame=  394 fps= 28 q=29.0 size=     256kB time=00:00:14.82 bitrate= 141.5kbits/s dup=414 drop=39 speed=1.05x    frame=  394 fps= 27 q=29.0 size=     256kB time=00:00:15.29 bitrate= 137.1kbits/s dup=414 drop=39 speed=1.04x    frame=  394 fps= 26 q=29.0 size=     256kB time=00:00:15.80 bitrate= 132.7kbits/s dup=414 drop=39 speed=1.04x    frame=  436 fps= 28 q=29.0 size=     256kB time=00:00:16.32 bitrate= 128.5kbits/s dup=449 drop=42 speed=1.04x    frame=  436 fps= 27 q=29.0 size=     256kB time=00:00:16.83 bitrate= 124.6kbits/s dup=449 drop=42 speed=1.04x    frame=  470 fps= 28 q=29.0 size=     256kB time=00:00:17.34 bitrate= 121.0kbits/s dup=452 drop=42 speed=1.04x    frame=  477 fps= 28 q=29.0 size=     256kB time=00:00:17.85 bitrate= 117.5kbits/s dup=483 drop=45 speed=1.04x    frame=  477 fps= 27 q=29.0 size=     256kB time=00:00:18.30 bitrate= 114.6kbits/s dup=483 drop=45 speed=1.03x    frame=  516 fps= 28 q=29.0 size=     256kB time=00:00:18.79 bitrate= 111.6kbits/s dup=487 drop=45 speed=1.03x    frame=  519 fps= 28 q=29.0 size=     256kB time=00:00:19.34 bitrate= 108.4kbits/s dup=518 drop=48 speed=1.03x    frame=  519 fps= 27 q=29.0 size=     256kB time=00:00:19.83 bitrate= 105.7kbits/s dup=518 drop=48 speed=1.03x    frame=  561 fps= 28 q=29.0 size=     256kB time=00:00:20.35 bitrate= 103.1kbits/s dup=553 drop=51 speed=1.03x    frame=  561 fps= 28 q=29.0 size=     256kB time=00:00:20.86 bitrate= 100.5kbits/s dup=553 drop=51 speed=1.03x    frame=  561 fps= 27 q=29.0 size=     256kB time=00:00:21.37 bitrate=  98.1kbits/s dup=553 drop=51 speed=1.03x    frame=  603 fps= 28 q=29.0 size=     256kB time=00:00:21.88 bitrate=  95.8kbits/s dup=588 drop=54 speed=1.03x    frame=  603 fps= 28 q=29.0 size=     256kB time=00:00:22.35 bitrate=  93.8kbits/s dup=588 drop=54 speed=1.03x    frame=  638 fps= 29 q=29.0 size=     256kB time=00:00:22.91 bitrate=  91.5kbits/s dup=591 drop=54 speed=1.03x    frame=  645 fps= 28 q=29.0 size=     256kB time=00:00:23.42 bitrate=  89.5kbits/s dup=624 drop=58 speed=1.03x    frame=  645 fps= 28 q=29.0 size=     256kB time=00:00:23.93 bitrate=  87.6kbits/s dup=624 drop=58 speed=1.03x    frame=  684 fps= 29 q=29.0 size=     256kB time=00:00:24.36 bitrate=  86.1kbits/s dup=627 drop=58 speed=1.02x    frame=  687 fps= 28 q=29.0 size=     256kB time=00:00:24.91 bitrate=  84.2kbits/s dup=659 drop=61 speed=1.03x    frame=  687 fps= 28 q=29.0 size=     256kB time=00:00:25.42 bitrate=  82.5kbits/s dup=659 drop=61 speed=1.03x    frame=  728 fps= 29 q=29.0 size=     256kB time=00:00:25.93 bitrate=  80.9kbits/s dup=694 drop=64 speed=1.03x    frame=  728 fps= 28 q=29.0 size=     256kB time=00:00:26.44 bitrate=  79.3kbits/s dup=694 drop=64 speed=1.03x    frame=  728 fps= 28 q=29.0 size=     256kB time=00:00:26.91 bitrate=  77.9kbits/s dup=694 drop=64 speed=1.02x    frame=  770 fps= 29 q=29.0 size=     256kB time=00:00:27.42 bitrate=  76.5kbits/s dup=728 drop=67 speed=1.02x    frame=  770 fps= 28 q=29.0 size=     256kB time=00:00:27.94 bitrate=  75.1kbits/s dup=728 drop=67 speed=1.02x    frame=  770 fps= 28 q=29.0 size=     256kB time=00:00:28.39 bitrate=  73.9kbits/s dup=728 drop=67 speed=1.02x    frame=  813 fps= 29 q=29.0 size=     256kB time=00:00:28.92 bitrate=  72.5kbits/s dup=764 drop=70 speed=1.02x    frame=  813 fps= 28 q=29.0 size=     256kB time=00:00:29.44 bitrate=  71.2kbits/s dup=764 drop=70 speed=1.02x    frame=  847 fps= 29 q=29.0 size=     256kB time=00:00:29.95 bitrate=  70.0kbits/s dup=767 drop=70 speed=1.02x    frame=  854 fps= 29 q=29.0 size=     256kB time=00:00:30.46 bitrate=  68.9kbits/s dup=798 drop=73 speed=1.02x    frame=  854 fps= 28 q=29.0 size=     256kB time=00:00:30.97 bitrate=  67.7kbits/s dup=798 drop=73 speed=1.02x    frame=  896 fps= 29 q=29.0 size=     256kB time=00:00:31.48 bitrate=  66.6kbits/s dup=833 drop=76 speed=1.02x    frame=  896 fps= 29 q=29.0 size=     256kB time=00:00:32.00 bitrate=  65.5kbits/s dup=833 drop=76 speed=1.02x    frame=  896 fps= 28 q=29.0 size=     256kB time=00:00:32.51 bitrate=  64.5kbits/s dup=833 drop=76 speed=1.02x    frame=  938 fps= 29 q=29.0 size=     256kB time=00:00:32.96 bitrate=  63.6kbits/s dup=868 drop=79 speed=1.02x    frame=  938 fps= 29 q=29.0 size=     256kB time=00:00:33.49 bitrate=  62.6kbits/s dup=868 drop=79 speed=1.02x    frame=  938 fps= 28 q=29.0 size=     256kB time=00:00:33.98 bitrate=  61.7kbits/s dup=868 drop=79 speed=1.02x    frame=  980 fps= 29 q=29.0 size=     256kB time=00:00:34.51 bitrate=  60.8kbits/s dup=903 drop=82 speed=1.02x    frame=  980 fps= 29 q=29.0 size=     256kB time=00:00:35.02 bitrate=  59.9kbits/s dup=903 drop=82 speed=1.02x    frame= 1015 fps= 29 q=29.0 size=     256kB time=00:00:35.47 bitrate=  59.1kbits/s dup=906 drop=82 speed=1.02x    frame= 1022 fps= 29 q=29.0 size=     256kB time=00:00:35.98 bitrate=  58.3kbits/s dup=938 drop=85 speed=1.02x    frame= 1022 fps= 28 q=29.0 size=     256kB time=00:00:36.49 bitrate=  57.5kbits/s dup=938 drop=85 speed=1.02x    frame= 1062 fps= 29 q=29.0 size=     256kB time=00:00:36.96 bitrate=  56.7kbits/s dup=941 drop=88 speed=1.02x    frame= 1063 fps= 29 q=29.0 size=     256kB time=00:00:37.51 bitrate=  55.9kbits/s dup=973 drop=88 speed=1.02x    frame= 1063 fps= 28 q=29.0 size=     256kB time=00:00:38.03 bitrate=  55.2kbits/s dup=973 drop=88 speed=1.02x    [vost#0:0/libx264 @ 0x5633dcd61d80] More than 1000 frames duplicated
frame= 1105 fps= 29 q=29.0 size=     256kB time=00:00:38.54 bitrate=  54.4kbits/s dup=1007 drop=91 speed=1.02x    frame= 1105 fps= 29 q=29.0 size=     256kB time=00:00:39.05 bitrate=  53.7kbits/s dup=1007 drop=91 speed=1.02x    frame= 1105 fps= 28 q=29.0 size=     256kB time=00:00:39.52 bitrate=  53.1kbits/s dup=1007 drop=91 speed=1.02x    frame= 1147 fps= 29 q=29.0 size=     512kB time=00:00:40.03 bitrate= 104.8kbits/s dup=1042 drop=94 speed=1.02x    frame= 1147 fps= 29 q=29.0 size=     512kB time=00:00:40.54 bitrate= 103.4kbits/s dup=1042 drop=94 speed=1.02x    frame= 1182 fps= 29 q=29.0 size=     512kB time=00:00:41.06 bitrate= 102.2kbits/s dup=1045 drop=94 speed=1.02x    frame= 1189 fps= 29 q=29.0 size=     512kB time=00:00:41.57 bitrate= 100.9kbits/s dup=1077 drop=97 speed=1.02x    frame= 1189 fps= 29 q=29.0 size=     512kB time=00:00:42.06 bitrate=  99.7kbits/s dup=1077 drop=97 speed=1.02x    frame= 1228 fps= 29 q=29.0 size=     512kB time=00:00:42.48 bitrate=  98.7kbits/s dup=1081 drop=97 speed=1.01x    frame= 1231 fps= 29 q=29.0 size=     512kB time=00:00:43.04 bitrate=  97.5kbits/s dup=1113 drop=101 speed=1.01x    frame= 1231 fps= 29 q=29.0 size=     512kB time=00:00:43.55 bitrate=  96.3kbits/s dup=1113 drop=101 speed=1.01x    frame= 1272 fps= 29 q=29.0 size=     512kB time=00:00:44.06 bitrate=  95.2kbits/s dup=1149 drop=105 speed=1.01x    frame= 1272 fps= 29 q=29.0 size=     512kB time=00:00:44.57 bitrate=  94.1kbits/s dup=1149 drop=105 speed=1.01x    frame= 1272 fps= 29 q=29.0 size=     512kB time=00:00:45.09 bitrate=  93.0kbits/s dup=1149 drop=105 speed=1.01x    frame= 1314 fps= 29 q=29.0 size=     512kB time=00:00:45.56 bitrate=  92.1kbits/s dup=1183 drop=108 speed=1.01x    frame= 1314 fps= 29 q=29.0 size=     512kB time=00:00:46.07 bitrate=  91.0kbits/s dup=1183 drop=108 speed=1.01x    frame= 1349 fps= 29 q=29.0 size=     512kB time=00:00:46.62 bitrate=  90.0kbits/s dup=1186 drop=108 speed=1.01x    frame= 1356 fps= 29 q=29.0 size=     512kB time=00:00:47.13 bitrate=  89.0kbits/s dup=1218 drop=111 speed=1.01x    frame= 1356 fps= 29 q=29.0 size=     512kB time=00:00:47.65 bitrate=  88.0kbits/s dup=1218 drop=111 speed=1.01x    frame= 1395 fps= 29 q=29.0 size=     512kB time=00:00:48.05 bitrate=  87.3kbits/s dup=1222 drop=111 speed=1.01x    frame= 1398 fps= 29 q=29.0 size=     512kB time=00:00:48.61 bitrate=  86.3kbits/s dup=1253 drop=114 speed=1.01x    frame= 1398 fps= 29 q=29.0 size=     512kB time=00:00:49.12 bitrate=  85.4kbits/s dup=1253 drop=114 speed=1.01x    frame= 1439 fps= 29 q=29.0 size=     512kB time=00:00:49.63 bitrate=  84.5kbits/s dup=1288 drop=117 speed=1.01x    frame= 1439 fps= 29 q=29.0 size=     512kB time=00:00:50.14 bitrate=  83.6kbits/s dup=1288 drop=117 speed=1.01x    frame= 1439 fps= 29 q=29.0 size=     512kB time=00:00:50.65 bitrate=  82.8kbits/s dup=1288 drop=117 speed=1.01x    frame= 1481 fps= 29 q=29.0 size=     512kB time=00:00:51.17 bitrate=  82.0kbits/s dup=1322 drop=120 speed=1.01x    frame= 1481 fps= 29 q=29.0 size=     512kB time=00:00:51.64 bitrate=  81.2kbits/s dup=1322 drop=120 speed=1.01x    frame= 1516 fps= 29 q=29.0 size=     512kB time=00:00:52.19 bitrate=  80.4kbits/s dup=1326 drop=120 speed=1.01x    frame= 1523 fps= 29 q=29.0 size=     512kB time=00:00:52.70 bitrate=  79.6kbits/s dup=1357 drop=123 speed=1.01x    frame= 1523 fps= 29 q=29.0 size=     512kB time=00:00:53.17 bitrate=  78.9kbits/s dup=1357 drop=123 speed=1.01x    frame= 1562 fps= 29 q=29.0 size=     512kB time=00:00:53.66 bitrate=  78.2kbits/s dup=1361 drop=123 speed=1.01x    frame= 1565 fps= 29 q=29.0 size=     512kB time=00:00:54.17 bitrate=  77.4kbits/s dup=1392 drop=126 speed=1.01x    frame= 1565 fps= 29 q=29.0 size=     512kB time=00:00:54.68 bitrate=  76.7kbits/s dup=1392 drop=126 speed=1.01x    frame= 1606 fps= 29 q=29.0 size=     512kB time=00:00:55.20 bitrate=  76.0kbits/s dup=1427 drop=129 speed=1.01x    frame= 1606 fps= 29 q=29.0 size=     512kB time=00:00:55.71 bitrate=  75.3kbits/s dup=1427 drop=129 speed=1.01x    frame= 1606 fps= 29 q=29.0 size=     512kB time=00:00:56.22 bitrate=  74.6kbits/s dup=1427 drop=129 speed=1.01x    frame= 1648 fps= 29 q=29.0 size=     512kB time=00:00:56.73 bitrate=  73.9kbits/s dup=1461 drop=132 speed=1.01x    frame= 1648 fps= 29 q=29.0 size=     512kB time=00:00:57.24 bitrate=  73.3kbits/s dup=1461 drop=132 speed=1.01x    frame= 1683 fps= 29 q=29.0 size=     512kB time=00:00:57.76 bitrate=  72.6kbits/s dup=1465 drop=132 speed=1.01x    frame= 1690 fps= 29 q=29.0 size=     512kB time=00:00:58.27 bitrate=  72.0kbits/s dup=1496 drop=135 speed=1.01x    frame= 1690 fps= 29 q=29.0 size=     512kB time=00:00:58.78 bitrate=  71.4kbits/s dup=1496 drop=135 speed=1.01x    frame= 1731 fps= 30 q=29.0 size=     512kB time=00:00:59.25 bitrate=  70.8kbits/s dup=1500 drop=135 speed=1.01x    frame= 1732 fps= 29 q=29.0 size=     512kB time=00:00:59.80 bitrate=  70.1kbits/s dup=1531 drop=138 speed=1.01x    frame= 1732 fps= 29 q=29.0 size=     512kB time=00:01:00.25 bitrate=  69.6kbits/s dup=1531 drop=138 speed=1.01x    frame= 1773 fps= 29 q=29.0 size=     512kB time=00:01:00.83 bitrate=  69.0kbits/s dup=1567 drop=142 speed=1.01x    frame= 1773 fps= 29 q=29.0 size=     512kB time=00:01:01.32 bitrate=  68.4kbits/s dup=1567 drop=142 speed=1.01x    frame= 1773 fps= 29 q=29.0 size=     512kB time=00:01:01.81 bitrate=  67.9kbits/s dup=1567 drop=142 speed=1.01x    frame= 1814 fps= 29 q=29.0 size=     512kB time=00:01:02.32 bitrate=  67.3kbits/s dup=1601 drop=146 speed=1.01x    [out#0/mp4 @ 0x5633dcd609c0] video:568kB audio:225kB subtitle:0kB other streams:0kB global headers:0kB muxing overhead: 10.480757%
frame= 1882 fps= 30 q=-1.0 Lsize=     876kB time=00:01:02.73 bitrate= 114.3kbits/s dup=1601 drop=146 speed=1.01x    
[libx264 @ 0x5633dcd62180] frame I:10    Avg QP:11.06  size: 32052
[libx264 @ 0x5633dcd62180] frame P:474   Avg QP:16.46  size:   373
[libx264 @ 0x5633dcd62180] frame B:1398  Avg QP:32.17  size:    60
[libx264 @ 0x5633dcd62180] consecutive B-frames:  1.0%  0.0%  0.0% 99.0%
[libx264 @ 0x5633dcd62180] mb I  I16..4: 78.6% 11.3% 10.1%
[libx264 @ 0x5633dcd62180] mb P  I16..4:  0.1%  0.5%  0.1%  P16..4:  0.2%  0.0%  0.0%  0.0%  0.0%    skip:99.0%
[libx264 @ 0x5633dcd62180] mb B  I16..4:  0.0%  0.2%  0.0%  B16..8:  0.4%  0.0%  0.0%  direct: 0.0%  skip:99.4%  L0:50.0% L1:49.9% BI: 0.0%
[libx264 @ 0x5633dcd62180] 8x8 transform intra:35.1% inter:41.7%
[libx264 @ 0x5633dcd62180] coded y,uvDC,uvAC intra: 10.9% 14.1% 9.8% inter: 0.0% 0.0% 0.0%
[libx264 @ 0x5633dcd62180] i16 v,h,dc,p: 84% 16%  0%  0%
[libx264 @ 0x5633dcd62180] i8 v,h,dc,ddl,ddr,vr,hd,vl,hu: 31%  7% 60%  0%  0%  0%  0%  0%  1%
[libx264 @ 0x5633dcd62180] i4 v,h,dc,ddl,ddr,vr,hd,vl,hu: 36% 26% 18%  2%  4%  3%  4%  3%  4%
[libx264 @ 0x5633dcd62180] i8c dc,h,v,p: 75% 18%  7%  0%
[libx264 @ 0x5633dcd62180] Weighted P-Frames: Y:0.0% UV:0.0%
[libx264 @ 0x5633dcd62180] ref P L0: 68.3%  9.2% 18.7%  3.8%
[libx264 @ 0x5633dcd62180] ref B L0: 70.2% 25.9%  3.9%
[libx264 @ 0x5633dcd62180] ref B L1: 93.5%  6.5%
[libx264 @ 0x5633dcd62180] kb/s:74.06
[aac @ 0x5633dcd67cc0] Qavg: 54340.312
Exiting normally, received signal 2.
